<svg id="Layer_42" viewBox="0 0 512 512" xmlns="http://www.w3.org/2000/svg" xmlns:xlink="http://www.w3.org/1999/xlink" data-name="Layer 42"><linearGradient id="linear-gradient" gradientUnits="userSpaceOnUse" x1="383.82" x2="84.1" y1="427.91" y2="128.19"><stop offset="0" stop-color="#13b601"/><stop offset=".49" stop-color="#13b601"/><stop offset=".68" stop-color="#5bce47"/><stop offset=".9" stop-color="#abe995"/><stop offset="1" stop-color="#cbf4b4"/></linearGradient><path d="m496.52 129.86c-13.43-49.48-64.89-100.93-114.37-114.37-30.33-7.57-70.98-15.36-126.15-15.49-55.17.14-95.81 7.92-126.15 15.49-49.47 13.44-100.93 64.89-114.36 114.37-7.57 30.33-15.35 70.98-15.49 126.14.14 55.17 7.92 95.81 15.49 126.15 13.44 49.48 64.89 100.93 114.37 114.37 30.34 7.57 70.98 15.35 126.15 15.49 55.16-.14 95.81-7.92 126.15-15.49 49.48-13.44 100.93-64.89 114.37-114.37 7.57-30.33 15.35-70.98 15.49-126.15-.14-55.17-7.92-95.81-15.49-126.15z" fill="#e5f4d9"/><path d="m418.9 349.34c-4.61-5.15-18.79-17.98-28.95-25.64-9.99-7.83-26.29-18.43-32.65-21.71-10.39-5.41-26.04-4.8-35.76 1.73-5.82 4.04-13.32 9.85-22.08 18.99-.05.05-.1.1-.15.16-7.57 7.97-19.76 9.32-28.86 3.15-15.86-10.74-31.55-23.71-46.16-38.32-14.61-14.61-27.58-30.3-38.32-46.16-6.16-9.1-4.82-21.29 3.15-28.86.05-.05.1-.1.16-.15 9.14-8.76 14.95-16.26 18.99-22.08 6.54-9.72 7.14-25.37 1.73-35.76-3.28-6.36-13.88-22.66-21.71-32.65-7.65-10.16-20.49-24.34-25.64-28.95-8.4-7.58-22.6-9.55-32.52-4.16-5.96 3.36-13.75 8.35-23.25 16.7-.25.23-.5.45-.74.68-43.81 37.69-14.97 142.84 70.92 228.6 85.76 85.89 190.92 114.73 228.61 70.92.23-.25.45-.5.68-.74 8.35-9.51 13.34-17.3 16.7-23.25 5.4-9.91 3.42-24.11-4.16-32.52z" fill="url(#linear-gradient)"/></svg>