<svg viewBox="0 0 48 48" xmlns="http://www.w3.org/2000/svg" xmlns:xlink="http://www.w3.org/1999/xlink"><linearGradient id="linear-gradient" gradientUnits="userSpaceOnUse" x1="1" x2="31" y1="27" y2="27"><stop offset="0" stop-color="#54a5ff"/><stop offset="1" stop-color="#8ad3fe"/></linearGradient><linearGradient id="linear-gradient-2" gradientUnits="userSpaceOnUse" x1="16" x2="16" y1="47" y2="33"><stop offset="0" stop-color="#fe9661"/><stop offset="1" stop-color="#ffb369"/></linearGradient><linearGradient id="linear-gradient-3" gradientUnits="userSpaceOnUse" x1="16" x2="16" y1="14" y2="1"><stop offset="0" stop-color="#d3e6f5"/><stop offset="1" stop-color="#f0f7fc"/></linearGradient><linearGradient id="linear-gradient-4" x1="31" x2="31" xlink:href="#linear-gradient-2" y1="33" y2="19"/><g id="Unlock"><rect fill="url(#linear-gradient)" height="26" rx="3" width="30" x="1" y="14"/><path d="m21 26a4 4 0 1 0 -6 3.45v3.55a2 2 0 0 0 4 0v-3.55a4 4 0 0 0 2-3.45z" fill="#4795ea"/><rect fill="url(#linear-gradient-2)" height="14" rx="2" width="24" x="4" y="33"/><g fill="#f0f7fc"><path d="m18 36h-2a1 1 0 0 0 -1 1v6a1 1 0 0 0 2 0v-1h1a3 3 0 0 0 0-6zm0 4h-1v-2h1a1 1 0 0 1 0 2z"/><path d="m10 36a3 3 0 0 0 -3 3v4a1 1 0 0 0 2 0v-1h2v1a1 1 0 0 0 2 0v-4a3 3 0 0 0 -3-3zm-1 4v-1a1 1 0 0 1 2 0v1z"/><path d="m24 44a1 1 0 0 1 -1-1v-6a1 1 0 0 1 2 0v6a1 1 0 0 1 -1 1z"/></g><path d="m25 10v2h-4v-2a5 5 0 0 0 -10 0v4h-4v-4a9 9 0 0 1 18 0z" fill="url(#linear-gradient-3)"/><path d="m40 19a7 7 0 0 0 -6.71 5h-16.29a2 2 0 0 0 0 4h16.29a7 7 0 1 0 6.71-9z" fill="url(#linear-gradient-4)"/><circle cx="43" cy="26" fill="#f0f7fc" r="2"/></g></svg>